<svg viewBox="0 0 120 120" fill="none" xmlns="http://www.w3.org/2000/svg">
  <defs>
    <linearGradient id="primaryGradient" x1="0%" y1="0%" x2="100%" y2="100%">
      <stop offset="0%" stop-color="#00d1c7" />
      <stop offset="100%" stop-color="#00bfb6" />
    </linearGradient>
    <linearGradient id="accentGradient" x1="0%" y1="0%" x2="100%" y2="100%">
      <stop offset="0%" stop-color="#a870ff" />
      <stop offset="100%" stop-color="#945bff" />
    </linearGradient>
    <filter id="glow">
      <feGaussianBlur stdDeviation="3" result="coloredBlur"/>
      <feMerge>
        <feMergeNode in="coloredBlur"/>
        <feMergeNode in="SourceGraphic"/>
      </feMerge>
    </filter>
  </defs>

  <circle cx="60" cy="60" r="55" fill="url(#primaryGradient)" opacity="0.1"/>

  <path d="M 30 30 L 30 70 L 50 70 L 50 50 L 40 50 L 40 60 L 30 60 Z" fill="url(#primaryGradient)" filter="url(#glow)"/>

  <path d="M 55 30 L 55 70 L 65 70 L 65 45 L 70 55 L 75 45 L 75 70 L 85 70 L 85 30 L 75 30 L 75 50 L 70 40 L 65 50 L 65 30 Z" fill="url(#accentGradient)" filter="url(#glow)"/>

  <circle cx="95" cy="35" r="8" fill="url(#primaryGradient)" filter="url(#glow)"/>
  <circle cx="95" cy="35" r="5" fill="url(#accentGradient)"/>

  <circle cx="25" cy="25" r="2" fill="#00d1c7" opacity="0.8"/>
  <circle cx="100" cy="60" r="1.5" fill="#a870ff" opacity="0.8"/>
</svg>

